<svg id="Layer_1" data-name="Layer 1" xmlns="http://www.w3.org/2000/svg" viewBox="0 0 262 11"><path d="M262 2c-3 0-5.72 7-8.75 7s-5.94-7-8.72-7c-3 0-5.72 7-8.75 7s-5.93-7-8.71-7c-3 0-5.73 7-8.76 7s-5.93-7-8.71-7c-3 0-5.72 7-8.75 7s-5.94-7-8.72-7c-3 0-5.72 7-8.75 7s-5.93-7-8.71-7c-3 0-5.73 7-8.76 7S160 2 157.2 2c-3 0-5.72 7-8.75 7s-5.94-7-8.72-7c-3 0-5.72 7-8.75 7s-5.98-7-8.71-7c-3 0-5.73 7-8.76 7s-5.93-7-8.71-7c-3 0-5.72 7-8.75 7s-5.94-7-8.72-7c-3 0-5.72 7-8.75 7s-5.93-7-8.71-7c-3 0-5.73 7-8.76 7s-5.93-7-8.71-7c-3 0-5.72 7-8.75 7s-5.94-7-8.72-7c-3 0-5.72 7-8.75 7s-5.93-7-8.71-7c-3 0-5.73 7-8.76 7S2.78 2 0 2" fill="none" vector-effect="non-scaling-stroke"/></svg>