<svg id="Layer_1" version="1.1" xmlns="http://www.w3.org/2000/svg" x="0" y="0" viewBox="0 0 330 330" xml:space="preserve" preserveAspectRatio="xMinYMid"><text transform="matrix(1.04 0 0 1 2.012 18.828)"><tspan x="0" y="0" fill="#FF8773" font-size="21" letter-spacing="1">dep</tspan><tspan x="45.6" y="0" fill="#FF8773" font-size="21" letter-spacing="1">o</tspan><tspan x="60.4" y="0" fill="#FF8773" font-size="21" letter-spacing="1">rt</tspan><tspan x="82.2" y="0" fill="#FF8773" font-size="21">o</tspan><tspan x="96.7" y="0" fill="#FF8773" font-size="21">w</tspan><tspan x="118" y="0" fill="#FF8773" font-size="21" letter-spacing="1">ani</tspan><tspan x="156" y="0" fill="#FF8773" font-size="21" letter-spacing="1"> </tspan><tspan x="162.2" y="0" fill="#FF8773" font-size="21" letter-spacing="1">w</tspan><tspan x="184" y="0" fill="#FF8773" font-size="21" letter-spacing="1"> </tspan><tspan x="190.2" y="0" fill="#FF8773" font-size="21" letter-spacing="1">głąb</tspan><tspan x="244.2" y="0" fill="#FF8773" font-size="21" letter-spacing="1"> </tspan><tspan x="250.4" y="0" fill="#FF8773" font-size="21" letter-spacing="1">ZSR</tspan><tspan x="297.7" y="0" fill="#FF8773" font-size="21">R</tspan></text><text transform="matrix(1.04 0 0 1 2.37 53.69)"><tspan x="0" y="0" fill="#FF8773" font-size="21" letter-spacing="1.9">i</tspan><tspan x="9.1" y="0" fill="#FF8773" font-size="21" letter-spacing="2.9"> </tspan><tspan x="16.5" y="0" fill="#FF8773" font-size="21" letter-spacing="1.9">ro</tspan><tspan x="43.9" y="0" fill="#FF8773" font-size="21" letter-spacing="1.9">z</tspan><tspan x="57.8" y="0" fill="#FF8773" font-size="21" letter-spacing="1.9">pros</tspan><tspan x="115.4" y="0" fill="#FF8773" font-size="21" letter-spacing="1.9">z</tspan><tspan x="129.3" y="0" fill="#FF8773" font-size="21" letter-spacing="1.9">eni</tspan><tspan x="169.7" y="0" fill="#FF8773" font-size="21" letter-spacing="2.9"> </tspan><tspan x="177.2" y="0" fill="#FF8773" font-size="21" letter-spacing="1.9">po</tspan><tspan x="209.4" y="0" fill="#FF8773" font-size="21" letter-spacing="2.9"> </tspan><tspan x="216.9" y="0" fill="#FF8773" font-size="21" letter-spacing="1">ś</tspan><tspan x="230.3" y="0" fill="#FF8773" font-size="21" letter-spacing="1.9">wi</tspan><tspan x="262" y="0" fill="#FF8773" font-size="21" letter-spacing="1.9">e</tspan><tspan x="276.9" y="0" fill="#FF8773" font-size="21" letter-spacing="1.9">ci</tspan><tspan x="299.9" y="0" fill="#FF8773" font-size="21">e</tspan></text><text transform="matrix(1.0266 0 0 1 2.312 324)"><tspan x="0" y="0" fill="#FF8773" font-size="21">podczas</tspan><tspan x="94.7" y="0" fill="#FF8773" font-size="21"> </tspan><tspan x="100.1" y="0" fill="#FF8773" font-size="21">II</tspan><tspan x="115.2" y="0" fill="#FF8773" font-size="21"> </tspan><tspan x="120.5" y="0" fill="#FF8773" font-size="21">w</tspan><tspan x="141.3" y="0" fill="#FF8773" font-size="21">o</tspan><tspan x="155.4" y="0" fill="#FF8773" font-size="21">jny</tspan><tspan x="191.9" y="0" fill="#FF8773" font-size="21" letter-spacing="1"> </tspan><tspan x="197.3" y="0" fill="#FF8773" font-size="21">ś</tspan><tspan x="209.2" y="0" fill="#FF8773" font-size="21">wiat</tspan><tspan x="261.6" y="0" fill="#FF8773" font-size="21">ow</tspan><tspan x="296.2" y="0" fill="#FF8773" font-size="21">e</tspan><tspan x="309.6" y="0" fill="#FF8773" font-size="21">j</tspan></text></svg>