<svg version="1.1" id="Layer_1" xmlns="http://www.w3.org/2000/svg" x="0" y="0" viewBox="0 0 330 330" xml:space="preserve" preserveAspectRatio="xMinYMid" aria-labelledby="title"><path d="M15.8 18.8h-4.9v-1.2c-.8.9-1.9 1.4-3.1 1.4-3.3 0-5.5-2.4-5.5-6 0-3.5 2.1-5.8 5.3-5.8 1.3 0 2.4.5 3.2 1.3V3.2h4.9v15.6zm-4.9-5.7c0-1.3-.7-2.2-1.8-2.2s-1.8.9-1.8 2.2.7 2.2 1.8 2.2c1.1.1 1.8-.8 1.8-2.2zm20.5 1h-7.8c.3.9 1 1.4 2 1.4.8 0 1.7-.4 2.4-1l2.6 2.4c-1.3 1.3-3.1 2.1-5.4 2.1-4.1 0-6.5-2.3-6.5-5.9 0-3.6 2.5-6 6.4-6 4.1.1 6.6 2.8 6.3 7zM26.5 12c.1-.9-.5-1.6-1.4-1.6s-1.4.6-1.6 1.6h3zm21.3 1.2c0 3.5-2.1 5.8-5.3 5.8-1.3 0-2.4-.5-3.2-1.3v5.2h-4.9V7.3h4.9v1.2c.8-.9 1.8-1.3 3-1.3 3.3 0 5.5 2.3 5.5 6zm-4.9-.2c0-1.3-.7-2.2-1.8-2.2s-1.8.9-1.8 2.2.7 2.2 1.8 2.2c1.1.1 1.8-.8 1.8-2.2zm20.3.1c0 3.6-2.6 5.9-6.7 5.9s-6.7-2.3-6.7-5.9 2.6-5.9 6.7-5.9 6.7 2.3 6.7 5.9zm-8.5 0c0 1.3.7 2.2 1.8 2.2s1.8-.9 1.8-2.2-.7-2.2-1.8-2.2-1.8.9-1.8 2.2zM71 9c.8-1.2 2.1-1.9 3.6-1.9v4.3c-2.2-.3-3.6.4-3.6 2v5.5h-5V7.3h5V9zm14.8 9.3c-.8.5-2.1.7-3.4.7-2.7 0-4.5-1.5-4.5-3.9V11h-1.6V8h1.6V4.8h4.9V8h2.8v3h-2.8v3.5c0 .6.4 1 1 1 .3 0 .8-.1 1.2-.3l.8 3.1zm15.5-5.2c0 3.6-2.6 5.9-6.7 5.9s-6.7-2.3-6.7-5.9 2.6-5.9 6.7-5.9 6.7 2.3 6.7 5.9zm-8.6 0c0 1.3.7 2.2 1.8 2.2s1.8-.9 1.8-2.2-.7-2.2-1.8-2.2-1.8.9-1.8 2.2zm22.2 5.7l-1.7-6-1.8 6h-4.8l-4.3-11.5h5l1.9 6.8 1.8-6.8h4.5l1.9 6.8 1.9-6.8h4.7l-4.4 11.5h-4.7zm22.4-7.4v7.4h-4.8v-1.2c-.7.9-1.8 1.4-3.4 1.4-2.5 0-4-1.4-4-3.6 0-2.3 1.6-3.5 4.6-3.5h2.7c0-.8-.7-1.3-1.9-1.3-.9 0-2.3.3-3.6.7l-1.1-3.1c2-.7 4.1-1.1 5.9-1.1 3.5 0 5.6 1.6 5.6 4.3zm-4.9 3.8v-1h-1.7c-.7 0-1 .3-1 .9 0 .6.4 1 1.1 1 .6-.1 1.2-.4 1.6-.9zm21-3.7v7.3h-4.9v-6c0-1-.6-1.6-1.4-1.6-1 0-1.6.7-1.6 1.8v5.7h-4.9V7.3h4.9V9c.8-1.2 2.1-1.8 3.6-1.8 2.6-.1 4.3 1.7 4.3 4.3zm8.4-7.4c0 1.4-1 2.4-2.5 2.4s-2.5-1-2.5-2.4 1-2.4 2.5-2.4 2.5 1 2.5 2.4zm-5 14.7V7.3h4.9v11.5h-4.9zm26.3 0l-1.7-6-1.8 6h-4.8l-4.3-11.5h5l1.9 6.8 1.8-6.8h4.5l1.9 6.8 1.9-6.8h4.7l-4.4 11.5h-4.7zm29.9-.9c0 3.2-2.7 5.2-6.7 5.2-2.3 0-4.4-.7-5.6-1.5l1.6-3.2c1 .6 2.5 1 3.6 1 1.4 0 2.2-.6 2.2-1.4v-1.1c-.7.8-1.7 1.2-3 1.2-2.8 0-4.9-2.2-4.9-5.5s2-5.4 4.8-5.4c1.3 0 2.3.4 3.1 1.2V7.3h4.9v10.6zm-4.9-5.2c0-1.3-.7-2.1-1.7-2.1s-1.7.8-1.7 2.1c0 1.2.7 2.1 1.7 2.1s1.7-.8 1.7-2.1zm14.1 6.1h-4.9v-6.6l-2 .5-.8-2.8 2.8-.8V3.2h4.9v4.5l1.6-.4.8 2.8-2.4.7v8zm15.3-7.4v7.4h-1c-.5.7-.8 1.3-.8 1.7 0 .2.1.3.3.3.3 0 .6-.2.8-.6l1.2 1.3c-.6 1.1-1.6 1.6-2.6 1.6-.9 0-2.1-.4-2.1-1.8 0-.9.4-1.7.9-2.4h-1.5v-1.3c-.7.9-1.9 1.5-3.4 1.5-2.6 0-4-1.4-4-3.6 0-2.3 1.6-3.5 4.7-3.5h2.8c0-.8-.7-1.2-1.9-1.2-.9 0-2.3.3-3.7.7L226 8.2c2.1-.7 4.2-1.1 5.9-1.1 3.5 0 5.6 1.6 5.6 4.3zm-6.6 2.7c-.7 0-1.1.3-1.1.9 0 .6.4 1 1.1 1 .7 0 1.3-.3 1.7-.9v-1h-1.7zm23.5-.9c0 3.5-2.1 5.8-5.3 5.8-1.3 0-2.4-.5-3.2-1.3v1.2H241V3.2h4.9v5.2c.8-.9 1.8-1.3 3-1.3 3.3.1 5.5 2.4 5.5 6.1zm-5-.2c0-1.3-.7-2.2-1.8-2.2s-1.8.9-1.8 2.2.7 2.2 1.8 2.2c1.1.1 1.8-.8 1.8-2.2zm20.3 2.1h7.3v3.7h-14v-3l7.1-7.9h-6.9V4.1h13.6v3l-7.1 8zm23.4-9.5l-1.8 3.7c-1.6-.8-3.9-1.7-5.3-1.7-.6 0-.9.2-.9.6 0 1.8 7.9.7 7.9 6 0 3.3-3 4.7-6.4 4.7-2.7 0-5.6-.9-7.7-2.4l1.9-3.7c1.6 1.3 4.3 2.3 5.8 2.3.7 0 1.2-.2 1.2-.8 0-1.9-7.9-.7-7.9-5.8 0-2.9 2.6-4.8 6.6-4.8 2.3.2 4.8.9 6.6 1.9zm9.4 9.4h-1.9v3.8h-5.1V4.1h7.4c4.1 0 6.5 1.9 6.5 5.3 0 2.1-.9 3.7-2.4 4.7l3 4.8h-5.7l-1.8-3.9zm.5-3.7c1.1 0 1.7-.7 1.7-1.8s-.6-1.7-1.7-1.7h-2.3v3.5h2.3zm16.6 3.7h-1.9v3.8h-5.1V4.1h7.4c4.1 0 6.5 1.9 6.5 5.3 0 2.1-.9 3.7-2.4 4.7l3 4.8h-5.7l-1.8-3.9zm.5-3.7c1.1 0 1.7-.7 1.7-1.8s-.6-1.7-1.7-1.7h-2.3v3.5h2.3zM8.5 38.9c0 1.4-1 2.4-2.5 2.4s-2.5-1-2.5-2.4 1-2.4 2.5-2.4 2.5 1 2.5 2.4zM3.6 53.7V42.2h4.9v11.5H3.6zm22.1-9.8c.8-1.2 2.1-1.9 3.6-1.9v4.3c-2.2-.3-3.6.4-3.6 2v5.5h-4.9V42.2h4.9v1.7zm19.8 4c0 3.6-2.6 5.9-6.7 5.9S32 51.5 32 47.9s2.6-5.9 6.7-5.9 6.8 2.3 6.8 5.9zM37 48c0 1.3.7 2.2 1.8 2.2s1.8-.9 1.8-2.2-.7-2.2-1.8-2.2-1.8.9-1.8 2.2zm17.7 2.2h5.2v3.5H48.5v-2.8l5-5.2h-4.8v-3.5h11V45l-5 5.2zM77.3 48c0 3.5-2.1 5.8-5.3 5.8-1.3 0-2.4-.5-3.2-1.3v5.2h-4.9V42.2h4.9v1.2c.8-.9 1.8-1.3 3-1.3 3.3-.1 5.5 2.3 5.5 5.9zm-5-.1c0-1.3-.7-2.2-1.8-2.2s-1.8.9-1.8 2.2.7 2.2 1.8 2.2 1.8-.9 1.8-2.2zm13.5-4c.8-1.2 2.1-1.9 3.6-1.9v4.3c-2.2-.3-3.6.4-3.6 2v5.5h-4.9V42.2h4.9v1.7zm19.9 4c0 3.6-2.6 5.9-6.7 5.9s-6.7-2.3-6.7-5.9S94.9 42 99 42s6.7 2.3 6.7 5.9zm-8.6.1c0 1.3.7 2.2 1.8 2.2s1.8-.9 1.8-2.2-.7-2.2-1.8-2.2-1.8.9-1.8 2.2zm22.7-4.6l-1.6 2.9c-1.8-.8-3.1-1.3-4-1.3-.4 0-.7.1-.7.4 0 1.1 6.2.7 6.2 4.5 0 2.4-2.1 3.9-5.4 3.9-2.2 0-4.2-.5-5.8-1.6l1.5-2.9c1.6.9 3.1 1.4 4.4 1.4.5 0 .7-.1.7-.3 0-1-6.1-.6-6.1-4.5 0-2.4 2.1-4 5.3-4 1.8.1 3.7.6 5.5 1.5zm9.3 6.8h5.2v3.5h-11.4v-2.8l5-5.2h-4.8v-3.5h11V45l-5 5.2zm20.8-1.2h-7.8c.3.9 1 1.4 2 1.4.8 0 1.7-.4 2.4-1l2.6 2.4c-1.3 1.3-3.1 2.1-5.4 2.1-4.1 0-6.5-2.3-6.5-5.9 0-3.6 2.5-6 6.4-6 4.1 0 6.6 2.8 6.3 7zm-4.9-2.2c.1-.9-.5-1.6-1.4-1.6s-1.4.7-1.6 1.6h3zm21.4-.4v7.3h-4.9v-6c0-1-.6-1.6-1.4-1.6-1 0-1.6.7-1.6 1.8v5.7h-4.9V42.2h4.9v1.6c.8-1.2 2.1-1.8 3.6-1.8 2.6 0 4.3 1.7 4.3 4.4zm9.2-7.5c0 1.4-1 2.4-2.5 2.4s-2.5-1-2.5-2.4 1-2.4 2.5-2.4 2.5 1 2.5 2.4zm-5 14.8V42.2h4.9v11.5h-4.9zm30.8-5.7c0 3.5-2.1 5.8-5.3 5.8-1.3 0-2.4-.5-3.2-1.3v5.2H188V42.2h4.9v1.2c.8-.9 1.8-1.3 3-1.3 3.4-.1 5.5 2.3 5.5 5.9zm-4.9-.1c0-1.3-.7-2.2-1.8-2.2s-1.8.9-1.8 2.2.7 2.2 1.8 2.2 1.8-.9 1.8-2.2zm21.2 0c0 3.6-2.6 5.9-6.7 5.9s-6.7-2.3-6.7-5.9 2.6-5.9 6.7-5.9 6.7 2.3 6.7 5.9zm-8.5.1c0 1.3.7 2.2 1.8 2.2s1.8-.9 1.8-2.2-.7-2.2-1.8-2.2-1.8.9-1.8 2.2zm30.4-4.6l-1.6 2.9c-1.8-.8-3.1-1.3-4-1.3-.4 0-.7.1-.7.4 0 1.1 6.2.7 6.2 4.5 0 2.4-2.1 3.9-5.4 3.9-2.2 0-4.2-.5-5.8-1.6l1.5-2.9c1.6.9 3.1 1.4 4.4 1.4.5 0 .7-.1.7-.3 0-1-6.1-.6-6.1-4.5 0-2.4 2.1-4 5.3-4 1.8.1 3.7.6 5.5 1.5zm-4.2-2.1h-3.5l2.3-4 4.1 1.3-2.9 2.7zm18.9 12.4l-1.7-6-1.8 6H246l-4.3-11.5h5l1.9 6.8 1.8-6.8h4.5l1.9 6.8 1.9-6.8h4.7L259 53.7h-4.7zm17.2-14.8c0 1.4-1 2.4-2.5 2.4s-2.5-1-2.5-2.4 1-2.4 2.5-2.4 2.5 1 2.5 2.4zm-4.9 14.8V42.2h4.9v11.5h-4.9zm21.3-4.7h-7.8c.3.9 1 1.4 2 1.4.8 0 1.7-.4 2.4-1l2.6 2.4c-1.3 1.3-3.1 2.1-5.4 2.1-4.1 0-6.5-2.3-6.5-5.9 0-3.6 2.5-6 6.4-6 4.1 0 6.6 2.8 6.3 7zm-4.9-2.2c.1-.9-.5-1.6-1.4-1.6s-1.4.7-1.6 1.6h3zm19.7-1.4l-3.9 1.6c-.3-.7-.8-1.1-1.5-1.1-1 0-1.6.8-1.6 2.1s.6 2.1 1.6 2.1c.7 0 1.2-.4 1.5-1.2l4 1.8c-.9 2-3 3.2-5.7 3.2-3.8 0-6.3-2.3-6.3-5.9 0-3.6 2.5-6 6.3-6 2.5 0 4.6 1.3 5.6 3.4zm8.2-6.5c0 1.4-1 2.4-2.5 2.4s-2.5-1-2.5-2.4 1-2.4 2.5-2.4 2.5 1 2.5 2.4zM306 53.7V42.2h4.9v11.5H306zm21.3-4.7h-7.8c.3.9 1 1.4 2 1.4.8 0 1.7-.4 2.4-1l2.6 2.4c-1.3 1.3-3.1 2.1-5.4 2.1-4.1 0-6.5-2.3-6.5-5.9 0-3.6 2.5-6 6.4-6 4.1 0 6.5 2.8 6.3 7zm-4.9-2.2c.1-.9-.5-1.6-1.4-1.6s-1.4.7-1.6 1.6h3zM16.9 318.3c0 3.5-2.1 5.8-5.3 5.8-1.3 0-2.4-.5-3.1-1.3v5.2H3.6v-15.6h4.9v1.2c.8-.9 1.8-1.3 3-1.3 3.2 0 5.4 2.4 5.4 6zm-4.9-.1c0-1.3-.7-2.2-1.8-2.2s-1.7.9-1.7 2.2.7 2.2 1.7 2.2c1.1 0 1.8-.9 1.8-2.2zm19.4 0c0 3.6-2.6 5.9-6.7 5.9s-6.7-2.3-6.7-5.9 2.6-5.9 6.7-5.9 6.7 2.4 6.7 5.9zm-8.4.1c0 1.3.7 2.2 1.8 2.2s1.8-.9 1.8-2.2-.7-2.2-1.8-2.2-1.8.9-1.8 2.2zm22.9 5.7H41v-1.2c-.8.9-1.8 1.3-3 1.3-3.3 0-5.4-2.4-5.4-6 0-3.5 2.1-5.8 5.3-5.8 1.3 0 2.4.5 3.1 1.3v-5.3h4.9V324zm-4.8-5.7c0-1.3-.7-2.2-1.7-2.2-1.1 0-1.8.9-1.8 2.2s.7 2.2 1.8 2.2c1 0 1.7-.8 1.7-2.2zm18.8-2.6l-3.9 1.6c-.3-.7-.8-1.1-1.5-1.1-.9 0-1.6.8-1.6 2.1s.6 2.1 1.6 2.1c.7 0 1.2-.4 1.4-1.2l3.9 1.8c-.9 2-2.9 3.2-5.6 3.2-3.8 0-6.2-2.3-6.2-5.9 0-3.6 2.5-6 6.2-6 2.7 0 4.7 1.3 5.7 3.4zm7.2 4.8h5.1v3.5H61v-2.8l4.9-5.2h-4.7v-3.5H72v2.8l-4.9 5.2zm18.5-3.9v7.4h-4.8v-1.2c-.7.9-1.8 1.4-3.3 1.4-2.5 0-3.9-1.4-3.9-3.6 0-2.3 1.6-3.5 4.6-3.5h2.7c0-.8-.6-1.3-1.8-1.3-.9 0-2.2.3-3.6.7l-1.1-3.1c2-.7 4.1-1.1 5.8-1.1 3.4 0 5.4 1.6 5.4 4.3zm-4.7 3.7v-1.1h-1.7c-.7 0-1 .3-1 .9 0 .6.4 1 1.1 1 .6.1 1.2-.2 1.6-.8zm17.7-6.5l-1.6 2.9c-1.7-.8-3.1-1.3-4-1.3-.4 0-.7.1-.7.4 0 1.1 6.1.7 6.1 4.5 0 2.4-2.1 3.9-5.3 3.9-2.2 0-4.1-.5-5.8-1.6l1.5-2.9c1.6.9 3 1.4 4.4 1.4.5 0 .7-.1.7-.3 0-1-6-.6-6-4.5 0-2.4 2-4 5.2-4 1.9 0 3.7.5 5.5 1.5zm7.5 10.2v-14.7h5V324h-5zm7.8 0v-14.7h5V324h-5zm24.4 0l-1.7-6-1.7 6h-4.7l-4.3-11.5h4.9l1.9 6.8 1.8-6.8h4.5l1.9 6.8 1.9-6.8h4.7L143 324h-4.7zm22.7-5.8c0 3.6-2.6 5.9-6.7 5.9s-6.7-2.3-6.7-5.9 2.6-5.9 6.7-5.9 6.7 2.4 6.7 5.9zm-8.4.1c0 1.3.7 2.2 1.8 2.2s1.8-.9 1.8-2.2-.7-2.2-1.8-2.2-1.8.9-1.8 2.2zm15.4 6.1c0 2.4-1.8 3.9-4.7 3.9-1.3 0-2.5-.3-3.4-.7l1.1-3.2c.4.2.8.3 1.2.3.6 0 .9-.3.9-1v-11.1h4.9v11.8zm.2-15.2c0 1.4-1.1 2.4-2.7 2.4s-2.7-1-2.7-2.4 1.1-2.4 2.7-2.4c1.7 0 2.7 1 2.7 2.4zm15.6 7.5v7.3H179v-6c0-1-.6-1.6-1.4-1.6-.9 0-1.6.7-1.6 1.8v5.7h-4.9v-11.5h4.9v1.6c.8-1.2 2-1.8 3.6-1.8 2.5.1 4.2 1.8 4.2 4.5zm10.3 8.1c-1 2.4-2.7 3.5-5.2 3.5-1.6 0-2.8-.4-4.1-1.3l2-3.1c.5.5 1 .7 1.6.7.6 0 .9-.2 1.2-.6l.2-.3-4.9-11.1h5l2.3 6.6 1.9-6.6h4.8l-4.8 12.2zm22.2-11l-1.6 2.9c-1.7-.8-3.1-1.3-4-1.3-.4 0-.7.1-.7.4 0 1.1 6.1.7 6.1 4.5 0 2.4-2.1 3.9-5.3 3.9-2.2 0-4.1-.5-5.8-1.6l1.5-2.9c1.6.9 3 1.4 4.4 1.4.5 0 .7-.1.7-.3 0-1-6-.6-6-4.5 0-2.4 2-4 5.2-4 1.9 0 3.7.5 5.5 1.5zm-4.1-2.2h-3.4l2.3-4 4.1 1.3-3 2.7zm17.1 12.4l-1.7-6-1.7 6h-4.7l-4.3-11.5h4.9l1.9 6.8 1.8-6.8h4.5l1.9 6.8 1.9-6.8h4.7L234 324h-4.7zm15.5-14.8c0 1.4-1 2.4-2.5 2.4-1.4 0-2.5-1-2.5-2.4s1-2.4 2.5-2.4 2.5 1 2.5 2.4zm-4.9 14.8v-11.5h4.9V324h-4.9zm19-7.4v7.4h-4.8v-1.2c-.7.9-1.8 1.4-3.3 1.4-2.5 0-3.9-1.4-3.9-3.6 0-2.3 1.6-3.5 4.6-3.5h2.7c0-.8-.6-1.3-1.8-1.3-.9 0-2.2.3-3.6.7l-1.1-3.1c2-.7 4.1-1.1 5.8-1.1 3.4 0 5.4 1.6 5.4 4.3zm-4.8 3.7v-1.1h-1.7c-.7 0-1 .3-1 .9 0 .6.4 1 1.1 1 .6.1 1.2-.2 1.6-.8zm15.8 3.2c-.8.4-2.1.7-3.4.7-2.7 0-4.4-1.5-4.4-3.9v-4.2h-1.6v-3h1.6v-3.2h4.8v3.2h2.8v3h-2.8v3.5c0 .6.4 1 .9 1 .3 0 .8-.1 1.2-.3l.9 3.2zm14.6-5.3c0 3.6-2.6 5.9-6.7 5.9s-6.7-2.3-6.7-5.9 2.6-5.9 6.7-5.9 6.7 2.4 6.7 5.9zm-8.5.1c0 1.3.7 2.2 1.8 2.2s1.8-.9 1.8-2.2-.7-2.2-1.8-2.2-1.8.9-1.8 2.2zm21.3 5.7l-1.7-6-1.7 6h-4.7l-4.3-11.5h4.9l1.9 6.8 1.8-6.8h4.5l1.9 6.8 1.9-6.8h4.7L302 324h-4.7zm22-4.7h-7.7c.3.9 1 1.4 2 1.4.8 0 1.7-.4 2.4-1l2.5 2.4c-1.3 1.3-3.1 2.1-5.3 2.1-4 0-6.4-2.3-6.4-5.9 0-3.6 2.5-6 6.3-6 4 0 6.4 2.8 6.2 7zm-4.9-2.2c.1-.9-.5-1.6-1.4-1.6s-1.4.7-1.6 1.6h3zm11.9 7.3c0 2.4-1.8 3.9-4.7 3.9-1.3 0-2.5-.3-3.4-.7l1.1-3.2c.4.2.8.3 1.2.3.6 0 .9-.3.9-1v-11.1h4.9v11.8zm.2-15.2c0 1.4-1.1 2.4-2.7 2.4s-2.7-1-2.7-2.4 1.1-2.4 2.7-2.4c1.7 0 2.7 1 2.7 2.4z" fill="#FF8773"/></svg>