<svg id="Layer_1" data-name="Layer 1" xmlns="http://www.w3.org/2000/svg" viewBox="0 0 83 62"><path d="M18.78 3.85c0 .38.19.62.51.62s.37-.12.37-.31-.13-.29-.83-.57c-1-.41-2-.76-2-1.93S18.07 0 19.28 0c2 0 2.39 1.07 2.39 1.86h-2c0-.4-.1-.58-.41-.58s-.35.09-.35.3.18.36.75.56c1 .35 2.08.71 2.08 1.92s-.86 1.86-2.47 1.86-2.49-.73-2.49-2.07zm5.06 1.91h2V1.88h1V.16H22.8v1.72h1zm9.24 0h1.84L37 .16h-2.18l-.85 3-.82-3H31.5l-.82 3-.85-3h-2.16l2 5.6h1.85l.75-2.58zM41.86 3a1.06 1.06 0 1 1-2.12 0 1.06 1.06 0 1 1 2.12 0M37.7 3a3.1 3.1 0 0 0 6.2 0 3.1 3.1 0 0 0-6.2 0m10.57-.65a.59.59 0 0 1-.58.63h-.49V1.69h.49a.58.58 0 0 1 .58.62m-3.11 3.45h2v-1.3l.92 1.3h2.41l-1.08-1.65a2.09 2.09 0 0 0 1-1.8A2.1 2.1 0 0 0 48.19.16h-3zm6.69-4h2.07l-2.41 4h5.32V4.14h-2.19l2.41-4h-5.2zM62.23 3a1.06 1.06 0 1 1-2.12 0 1.06 1.06 0 1 1 2.12 0m-4.16 0a3.11 3.11 0 0 0 6.21 0 3.11 3.11 0 0 0-6.21 0m9.5-2.8h-2v5.6h2V2.94l1.63 2.82h2V.16h-2v3zM76.66 3a1.07 1.07 0 1 1-2.13 0 1.07 1.07 0 1 1 2.13 0m-4.17 0a3.11 3.11 0 0 0 6.21 0 3.11 3.11 0 0 0-6.21 0M21.81 15.36h1.85l2.06-5.6h-2.16l-.85 3-.82-3h-1.65l-.83 3-.84-3h-2.16l2.05 5.6h1.85l.75-2.58zm10.5-3.45a.59.59 0 0 1-.59.62h-.49v-1.24h.5a.58.58 0 0 1 .58.62m-3.12 3.45h2v-1.31h1a2.15 2.15 0 1 0 0-4.29h-3zm9.47-3.45a.59.59 0 0 1-.59.62h-.48v-1.24h.49a.58.58 0 0 1 .58.62m-3.11 3.45h2v-1.31l.92 1.31h2.41l-1.13-1.65a2.16 2.16 0 0 0-1.21-4h-3zm10-2h-1l.45-1.85zm2.85 2l-2.2-5.6h-2.33l-2.13 5.6H44l.17-.62h1.73l.16.62zm4.93-2.42a.87.87 0 0 1-1 .72 1 1 0 0 1-1-1.1 1 1 0 0 1 1-1.11.88.88 0 0 1 .94.75h2.13a2.85 2.85 0 0 0-3.08-2.6 3 3 0 1 0 0 5.92 2.86 2.86 0 0 0 3.08-2.58zm7.26-.38a1.07 1.07 0 1 1-1.07-1.1 1 1 0 0 1 1.07 1.1m-4.17 0a3.11 3.11 0 1 0 3.1-3 2.92 2.92 0 0 0-3.1 3m12.33 2.8h1.85l2.06-5.6h-2.2l-.85 3-.82-3h-1.65l-.83 3-.84-3H63.3l2.06 5.6h1.85l.79-2.58zm7-5.6h-2v5.6h2v-2.83l1.63 2.83h2v-5.6h-2v3zm5.2 5.6h2v-5.6h-2zm-60 6.86a1.08 1.08 0 1 1-1.08-1.1 1.06 1.06 0 0 1 1.08 1.1m-4.21 0a2.94 2.94 0 0 0 3.13 3 3 3 0 1 0 0-6 2.94 2.94 0 0 0-3.13 3M25 25.05h2.06v-3.92h1V19.4H24v1.73h1zm9.33 0h1.86l2.07-5.65h-2.18l-.86 3.05-.83-3.05h-1.66l-.83 3.05-.9-3.05h-2.14l2.07 5.65h1.87l.76-2.6zm5 0h2V19.4h-2zm7.43-4.18V19.4h-3.88v5.65h3.82v-1.48h-1.77v-.63h1.77v-1.4h-1.77v-.67zm4.63.7a.6.6 0 0 1-.59.63h-.5v-1.26h.5a.59.59 0 0 1 .59.63m-3.14 3.48h2.05v-1.32l.93 1.32h2.44l-1.14-1.67a2.18 2.18 0 0 0-1.22-4h-3.12zm10.05-2h-1l.5-1.85zm2.88 2L58.9 19.4h-2.31l-2.15 5.65h2.24l.17-.63h1.78l.17.63zm3.2-5.65h-2v5.65h2V22.2L66 25.05h2V19.4h-2v3zm5.26 5.65h2.06V19.4h-2.12zm7-2h-1l.51-1.85zm2.87 2l-2.27-5.65h-2.31l-2.14 5.65H75l.17-.63H77l.17.63zm-59.2 9.59h2.36l-1.9-2.8 1.9-2.8h-2.41L19 31.24V29h-2v5.6h2v-2.15zm3.29-2c0 1.28.93 2.14 2.5 2.14s2.51-.86 2.51-2.14V29h-2v3.59a.47.47 0 1 1-.93 0V29h-2zm8.44.26V29H30v5.6h3.36v-1.68zm3.45 1.72h2v-3.86h1V29h-4.1v1.72h1zm4.22-2c0 1.28.93 2.14 2.51 2.14s2.5-.86 2.5-2.14V29h-2v3.59a.47.47 0 1 1-.93 0V29h-2zm9.51-1.47a.59.59 0 0 1-.58.63h-.54v-1.21h.5a.58.58 0 0 1 .57.62m-3.11 3.45h2v-1.3l.92 1.3h2.42L50.31 33a2.12 2.12 0 0 0 .95-1.81A2.1 2.1 0 0 0 49.09 29h-3zM58.13 29h-2.28l-.67 1.79-.6-1.79h-2.4L54 32.8l-.89 1.84h2.3zM0 .09v62.35h83v-5.67H5.67v-51h5.67V.09z" fill="#fff"/></svg>