<?xml version="1.0" encoding="utf-8"?>
<svg id="Layer_1" version="1.1" xmlns="http://www.w3.org/2000/svg" xmlns:xlink="http://www.w3.org/1999/xlink" x="0px" y="0px"
	 viewBox="0 0 330 330" enable-background="new 0 0 330 330" xml:space="preserve" preserveAspectRatio="xMinYMid">
<g>
	<text transform="matrix(1.04 0 0 1 2.0117 18.8276)"><tspan x="0" y="0" fill="#FF8773" font-size="21px" letter-spacing="1">dep</tspan><tspan x="45.6" y="0" fill="#FF8773" font-size="21px" letter-spacing="1">o</tspan><tspan x="60.4" y="0" fill="#FF8773" font-size="21px" letter-spacing="1">rt</tspan><tspan x="82.2" y="0" fill="#FF8773" font-size="21px">o</tspan><tspan x="96.7" y="0" fill="#FF8773" font-size="21px">w</tspan><tspan x="118" y="0" fill="#FF8773" font-size="21px" letter-spacing="1">ani</tspan><tspan x="156" y="0" fill="#FF8773" font-size="21px" letter-spacing="1"> </tspan><tspan x="162.2" y="0" fill="#FF8773" font-size="21px" letter-spacing="1">w</tspan><tspan x="184" y="0" fill="#FF8773" font-size="21px" letter-spacing="1"> </tspan><tspan x="190.2" y="0" fill="#FF8773" font-size="21px" letter-spacing="1">głąb</tspan><tspan x="244.2" y="0" fill="#FF8773" font-size="21px" letter-spacing="1"> </tspan><tspan x="250.4" y="0" fill="#FF8773" font-size="21px" letter-spacing="1">ZSR</tspan><tspan x="297.7" y="0" fill="#FF8773" font-size="21px">R </tspan></text>
	<text transform="matrix(1.04 0 0 1 162.7178 15.8276)" fill="#FF8773" font-size="21px"> </text>
	<text transform="matrix(1.04 0 0 1 2.3706 53.6899)"><tspan x="0" y="0" fill="#FF8773" font-size="21px" letter-spacing="1.9">i</tspan><tspan x="9.1" y="0" fill="#FF8773" font-size="21px" letter-spacing="2.9"> </tspan><tspan x="16.5" y="0" fill="#FF8773" font-size="21px" letter-spacing="1.9">ro</tspan><tspan x="43.9" y="0" fill="#FF8773" font-size="21px" letter-spacing="1.9">z</tspan><tspan x="57.8" y="0" fill="#FF8773" font-size="21px" letter-spacing="1.9">pros</tspan><tspan x="115.4" y="0" fill="#FF8773" font-size="21px" letter-spacing="1.9">z</tspan><tspan x="129.3" y="0" fill="#FF8773" font-size="21px" letter-spacing="1.9">eni</tspan><tspan x="169.7" y="0" fill="#FF8773" font-size="21px" letter-spacing="2.9"> </tspan><tspan x="177.2" y="0" fill="#FF8773" font-size="21px" letter-spacing="1.9">po</tspan><tspan x="209.4" y="0" fill="#FF8773" font-size="21px" letter-spacing="2.9"> </tspan><tspan x="216.9" y="0" fill="#FF8773" font-size="21px" letter-spacing="1">ś</tspan><tspan x="230.3" y="0" fill="#FF8773" font-size="21px" letter-spacing="1.9">wi</tspan><tspan x="262" y="0" fill="#FF8773" font-size="21px" letter-spacing="1.9">e</tspan><tspan x="276.9" y="0" fill="#FF8773" font-size="21px" letter-spacing="1.9">ci</tspan><tspan x="299.9" y="0" fill="#FF8773" font-size="21px">e</tspan></text>
	<text transform="matrix(1 0 0 1 162.8054 284.1377)" fill="#FF8773" font-size="21px"> </text>
	<text transform="matrix(1.0266 0 0 1 2.312 324)"><tspan x="0" y="0" fill="#FF8773" font-size="21px">podczas</tspan><tspan x="94.7" y="0" fill="#FF8773" font-size="21px"> </tspan><tspan x="100.1" y="0" fill="#FF8773" font-size="21px">II</tspan><tspan x="115.2" y="0" fill="#FF8773" font-size="21px"> </tspan><tspan x="120.5" y="0" fill="#FF8773" font-size="21px">w</tspan><tspan x="141.3" y="0" fill="#FF8773" font-size="21px">o</tspan><tspan x="155.4" y="0" fill="#FF8773" font-size="21px">jny</tspan><tspan x="191.9" y="0" fill="#FF8773" font-size="21px" letter-spacing="1"> </tspan><tspan x="197.3" y="0" fill="#FF8773" font-size="21px">ś</tspan><tspan x="209.2" y="0" fill="#FF8773" font-size="21px">wiat</tspan><tspan x="261.6" y="0" fill="#FF8773" font-size="21px">ow</tspan><tspan x="296.2" y="0" fill="#FF8773" font-size="21px">e</tspan><tspan x="309.6" y="0" fill="#FF8773" font-size="21px">j</tspan></text>
</g>
</svg>
