<?xml version="1.0" encoding="utf-8"?>
<!-- Generator: Adobe Illustrator 22.1.0, SVG Export Plug-In . SVG Version: 6.00 Build 0)  -->
<svg version="1.1" id="Layer_1" xmlns="http://www.w3.org/2000/svg" xmlns:xlink="http://www.w3.org/1999/xlink" x="0px" y="0px"
	 viewBox="0 0 330 330" enable-background="new 0 0 330 330"  xml:space="preserve" preserveAspectRatio="xMinYMid" aria-labelledby="title">
	<title id="title">deportowani w głąb ZSRR i rozproszeni po świecie podczas II wojny światowej</title>
<g>
	<path fill="#FF8773" d="M15.8,18.8h-4.9v-1.2C10.1,18.5,9,19,7.8,19c-3.3,0-5.5-2.4-5.5-6c0-3.5,2.1-5.8,5.3-5.8
		c1.3,0,2.4,0.5,3.2,1.3V3.2h4.9V18.8z M10.9,13.1c0-1.3-0.7-2.2-1.8-2.2c-1.1,0-1.8,0.9-1.8,2.2s0.7,2.2,1.8,2.2
		C10.2,15.4,10.9,14.5,10.9,13.1z"/>
	<path fill="#FF8773" d="M31.4,14.1h-7.8c0.3,0.9,1,1.4,2,1.4c0.8,0,1.7-0.4,2.4-1l2.6,2.4c-1.3,1.3-3.1,2.1-5.4,2.1
		c-4.1,0-6.5-2.3-6.5-5.9c0-3.6,2.5-6,6.4-6C29.2,7.2,31.7,9.9,31.4,14.1z M26.5,12c0.1-0.9-0.5-1.6-1.4-1.6S23.7,11,23.5,12H26.5z"
		/>
	<path fill="#FF8773" d="M47.8,13.2c0,3.5-2.1,5.8-5.3,5.8c-1.3,0-2.4-0.5-3.2-1.3v5.2h-4.9V7.3h4.9v1.2c0.8-0.9,1.8-1.3,3-1.3
		C45.6,7.2,47.8,9.5,47.8,13.2z M42.9,13c0-1.3-0.7-2.2-1.8-2.2c-1.1,0-1.8,0.9-1.8,2.2s0.7,2.2,1.8,2.2
		C42.2,15.3,42.9,14.4,42.9,13z"/>
	<path fill="#FF8773" d="M63.2,13.1c0,3.6-2.6,5.9-6.7,5.9s-6.7-2.3-6.7-5.9s2.6-5.9,6.7-5.9S63.2,9.5,63.2,13.1z M54.7,13.1
		c0,1.3,0.7,2.2,1.8,2.2s1.8-0.9,1.8-2.2s-0.7-2.2-1.8-2.2S54.7,11.8,54.7,13.1z"/>
	<path fill="#FF8773" d="M71,9c0.8-1.2,2.1-1.9,3.6-1.9v4.3c-2.2-0.3-3.6,0.4-3.6,2v5.5H66V7.3H71V9z"/>
	<path fill="#FF8773" d="M85.8,18.3C85,18.8,83.7,19,82.4,19c-2.7,0-4.5-1.5-4.5-3.9V11h-1.6V8h1.6V4.8h4.9V8h2.8v3h-2.8v3.5
		c0,0.6,0.4,1,1,1c0.3,0,0.8-0.1,1.2-0.3L85.8,18.3z"/>
	<path fill="#FF8773" d="M101.3,13.1c0,3.6-2.6,5.9-6.7,5.9s-6.7-2.3-6.7-5.9s2.6-5.9,6.7-5.9S101.3,9.5,101.3,13.1z M92.7,13.1
		c0,1.3,0.7,2.2,1.8,2.2s1.8-0.9,1.8-2.2s-0.7-2.2-1.8-2.2S92.7,11.8,92.7,13.1z"/>
	<path fill="#FF8773" d="M114.9,18.8l-1.7-6l-1.8,6h-4.8l-4.3-11.5h5l1.9,6.8l1.8-6.8h4.5l1.9,6.8l1.9-6.8h4.7l-4.4,11.5H114.9z"/>
	<path fill="#FF8773" d="M137.3,11.4v7.4h-4.8v-1.2c-0.7,0.9-1.8,1.4-3.4,1.4c-2.5,0-4-1.4-4-3.6c0-2.3,1.6-3.5,4.6-3.5h2.7
		c0-0.8-0.7-1.3-1.9-1.3c-0.9,0-2.3,0.3-3.6,0.7l-1.1-3.1c2-0.7,4.1-1.1,5.9-1.1C135.2,7.1,137.3,8.7,137.3,11.4z M132.4,15.2v-1
		h-1.7c-0.7,0-1,0.3-1,0.9c0,0.6,0.4,1,1.1,1C131.4,16,132,15.7,132.4,15.2z"/>
	<path fill="#FF8773" d="M153.4,11.5v7.3h-4.9v-6c0-1-0.6-1.6-1.4-1.6c-1,0-1.6,0.7-1.6,1.8v5.7h-4.9V7.3h4.9V9
		c0.8-1.2,2.1-1.8,3.6-1.8C151.7,7.1,153.4,8.9,153.4,11.5z"/>
	<path fill="#FF8773" d="M161.8,4.1c0,1.4-1,2.4-2.5,2.4s-2.5-1-2.5-2.4s1-2.4,2.5-2.4S161.8,2.7,161.8,4.1z M156.8,18.8V7.3h4.9
		v11.5H156.8z"/>
	<path fill="#FF8773" d="M183.1,18.8l-1.7-6l-1.8,6h-4.8l-4.3-11.5h5l1.9,6.8l1.8-6.8h4.5l1.9,6.8l1.9-6.8h4.7l-4.4,11.5H183.1z"/>
	<path fill="#FF8773" d="M213,17.9c0,3.2-2.7,5.2-6.7,5.2c-2.3,0-4.4-0.7-5.6-1.5l1.6-3.2c1,0.6,2.5,1,3.6,1c1.4,0,2.2-0.6,2.2-1.4
		v-1.1c-0.7,0.8-1.7,1.2-3,1.2c-2.8,0-4.9-2.2-4.9-5.5c0-3.3,2-5.4,4.8-5.4c1.3,0,2.3,0.4,3.1,1.2V7.3h4.9V17.9z M208.1,12.7
		c0-1.3-0.7-2.1-1.7-2.1s-1.7,0.8-1.7,2.1c0,1.2,0.7,2.1,1.7,2.1S208.1,14,208.1,12.7z"/>
	<path fill="#FF8773" d="M222.2,18.8h-4.9v-6.6l-2,0.5l-0.8-2.8l2.8-0.8V3.2h4.9v4.5l1.6-0.4l0.8,2.8l-2.4,0.7V18.8z"/>
	<path fill="#FF8773" d="M237.5,11.4v7.4h-1c-0.5,0.7-0.8,1.3-0.8,1.7c0,0.2,0.1,0.3,0.3,0.3c0.3,0,0.6-0.2,0.8-0.6l1.2,1.3
		c-0.6,1.1-1.6,1.6-2.6,1.6c-0.9,0-2.1-0.4-2.1-1.8c0-0.9,0.4-1.7,0.9-2.4h-1.5v-1.3c-0.7,0.9-1.9,1.5-3.4,1.5c-2.6,0-4-1.4-4-3.6
		c0-2.3,1.6-3.5,4.7-3.5h2.8v0c0-0.8-0.7-1.2-1.9-1.2c-0.9,0-2.3,0.3-3.7,0.7L226,8.2c2.1-0.7,4.2-1.1,5.9-1.1
		C235.4,7.1,237.5,8.7,237.5,11.4z M230.9,14.1c-0.7,0-1.1,0.3-1.1,0.9c0,0.6,0.4,1,1.1,1c0.7,0,1.3-0.3,1.7-0.9v-1H230.9z"/>
	<path fill="#FF8773" d="M254.4,13.2c0,3.5-2.1,5.8-5.3,5.8c-1.3,0-2.4-0.5-3.2-1.3v1.2h-4.9V3.2h4.9v5.2c0.8-0.9,1.8-1.3,3-1.3
		C252.2,7.2,254.4,9.5,254.4,13.2z M249.4,13c0-1.3-0.7-2.2-1.8-2.2c-1.1,0-1.8,0.9-1.8,2.2s0.7,2.2,1.8,2.2
		C248.7,15.3,249.4,14.4,249.4,13z"/>
	<path fill="#FF8773" d="M269.7,15.1h7.3v3.7h-14v-3l7.1-7.9h-6.9V4.1h13.6v3L269.7,15.1z"/>
	<path fill="#FF8773" d="M293.1,5.6l-1.8,3.7c-1.6-0.8-3.9-1.7-5.3-1.7c-0.6,0-0.9,0.2-0.9,0.6c0,1.8,7.9,0.7,7.9,6
		c0,3.3-3,4.7-6.4,4.7c-2.7,0-5.6-0.9-7.7-2.4l1.9-3.7c1.6,1.3,4.3,2.3,5.8,2.3c0.7,0,1.2-0.2,1.2-0.8c0-1.9-7.9-0.7-7.9-5.8
		c0-2.9,2.6-4.8,6.6-4.8C288.8,3.9,291.3,4.6,293.1,5.6z"/>
	<path fill="#FF8773" d="M302.5,15h-1.9v3.8h-5.1V4.1h7.4c4.1,0,6.5,1.9,6.5,5.3c0,2.1-0.9,3.7-2.4,4.7l3,4.8h-5.7L302.5,15z
		 M303,11.3c1.1,0,1.7-0.7,1.7-1.8c0-1.1-0.6-1.7-1.7-1.7h-2.3v3.5H303z"/>
	<path fill="#FF8773" d="M319.6,15h-1.9v3.8h-5.1V4.1h7.4c4.1,0,6.5,1.9,6.5,5.3c0,2.1-0.9,3.7-2.4,4.7l3,4.8h-5.7L319.6,15z
		 M320.1,11.3c1.1,0,1.7-0.7,1.7-1.8c0-1.1-0.6-1.7-1.7-1.7h-2.3v3.5H320.1z"/>
</g>
<g>
	<path fill="#FF8773" d="M8.5,38.9c0,1.4-1,2.4-2.5,2.4s-2.5-1-2.5-2.4s1-2.4,2.5-2.4S8.5,37.5,8.5,38.9z M3.6,53.7V42.2h4.9v11.5
		H3.6z"/>
	<path fill="#FF8773" d="M25.7,43.9c0.8-1.2,2.1-1.9,3.6-1.9v4.3c-2.2-0.3-3.6,0.4-3.6,2v5.5h-4.9V42.2h4.9V43.9z"/>
	<path fill="#FF8773" d="M45.5,47.9c0,3.6-2.6,5.9-6.7,5.9S32,51.5,32,47.9s2.6-5.9,6.7-5.9S45.5,44.3,45.5,47.9z M37,48
		c0,1.3,0.7,2.2,1.8,2.2s1.8-0.9,1.8-2.2s-0.7-2.2-1.8-2.2S37,46.7,37,48z"/>
	<path fill="#FF8773" d="M54.7,50.2h5.2v3.5H48.5v-2.8l5-5.2h-4.8v-3.5h11V45L54.7,50.2z"/>
	<path fill="#FF8773" d="M77.3,48c0,3.5-2.1,5.8-5.3,5.8c-1.3,0-2.4-0.5-3.2-1.3v5.2h-4.9V42.2h4.9v1.2c0.8-0.9,1.8-1.3,3-1.3
		C75.1,42,77.3,44.4,77.3,48z M72.3,47.9c0-1.3-0.7-2.2-1.8-2.2c-1.1,0-1.8,0.9-1.8,2.2s0.7,2.2,1.8,2.2
		C71.6,50.1,72.3,49.2,72.3,47.9z"/>
	<path fill="#FF8773" d="M85.8,43.9c0.8-1.2,2.1-1.9,3.6-1.9v4.3c-2.2-0.3-3.6,0.4-3.6,2v5.5h-4.9V42.2h4.9V43.9z"/>
	<path fill="#FF8773" d="M105.7,47.9c0,3.6-2.6,5.9-6.7,5.9s-6.7-2.3-6.7-5.9s2.6-5.9,6.7-5.9S105.7,44.3,105.7,47.9z M97.1,48
		c0,1.3,0.7,2.2,1.8,2.2s1.8-0.9,1.8-2.2s-0.7-2.2-1.8-2.2S97.1,46.7,97.1,48z"/>
	<path fill="#FF8773" d="M119.8,43.4l-1.6,2.9c-1.8-0.8-3.1-1.3-4-1.3c-0.4,0-0.7,0.1-0.7,0.4c0,1.1,6.2,0.7,6.2,4.5
		c0,2.4-2.1,3.9-5.4,3.9c-2.2,0-4.2-0.5-5.8-1.6l1.5-2.9c1.6,0.9,3.1,1.4,4.4,1.4c0.5,0,0.7-0.1,0.7-0.3c0-1-6.1-0.6-6.1-4.5
		c0-2.4,2.1-4,5.3-4C116.1,42,118,42.5,119.8,43.4z"/>
	<path fill="#FF8773" d="M129.1,50.2h5.2v3.5h-11.4v-2.8l5-5.2h-4.8v-3.5h11V45L129.1,50.2z"/>
	<path fill="#FF8773" d="M149.9,49h-7.8c0.3,0.9,1,1.4,2,1.4c0.8,0,1.7-0.4,2.4-1l2.6,2.4c-1.3,1.3-3.1,2.1-5.4,2.1
		c-4.1,0-6.5-2.3-6.5-5.9c0-3.6,2.5-6,6.4-6C147.7,42,150.2,44.8,149.9,49z M145,46.8c0.1-0.9-0.5-1.6-1.4-1.6s-1.4,0.7-1.6,1.6H145
		z"/>
	<path fill="#FF8773" d="M166.4,46.4v7.3h-4.9v-6c0-1-0.6-1.6-1.4-1.6c-1,0-1.6,0.7-1.6,1.8v5.7h-4.9V42.2h4.9v1.6
		c0.8-1.2,2.1-1.8,3.6-1.8C164.7,42,166.4,43.7,166.4,46.4z"/>
	<path fill="#FF8773" d="M175.6,38.9c0,1.4-1,2.4-2.5,2.4s-2.5-1-2.5-2.4s1-2.4,2.5-2.4S175.6,37.5,175.6,38.9z M170.6,53.7V42.2
		h4.9v11.5H170.6z"/>
	<path fill="#FF8773" d="M201.4,48c0,3.5-2.1,5.8-5.3,5.8c-1.3,0-2.4-0.5-3.2-1.3v5.2H188V42.2h4.9v1.2c0.8-0.9,1.8-1.3,3-1.3
		C199.3,42,201.4,44.4,201.4,48z M196.5,47.9c0-1.3-0.7-2.2-1.8-2.2c-1.1,0-1.8,0.9-1.8,2.2s0.7,2.2,1.8,2.2
		C195.8,50.1,196.5,49.2,196.5,47.9z"/>
	<path fill="#FF8773" d="M217.7,47.9c0,3.6-2.6,5.9-6.7,5.9s-6.7-2.3-6.7-5.9s2.6-5.9,6.7-5.9S217.7,44.3,217.7,47.9z M209.2,48
		c0,1.3,0.7,2.2,1.8,2.2s1.8-0.9,1.8-2.2s-0.7-2.2-1.8-2.2S209.2,46.7,209.2,48z"/>
	<path fill="#FF8773" d="M239.6,43.4l-1.6,2.9c-1.8-0.8-3.1-1.3-4-1.3c-0.4,0-0.7,0.1-0.7,0.4c0,1.1,6.2,0.7,6.2,4.5
		c0,2.4-2.1,3.9-5.4,3.9c-2.2,0-4.2-0.5-5.8-1.6l1.5-2.9c1.6,0.9,3.1,1.4,4.4,1.4c0.5,0,0.7-0.1,0.7-0.3c0-1-6.1-0.6-6.1-4.5
		c0-2.4,2.1-4,5.3-4C235.9,42,237.8,42.5,239.6,43.4z M235.4,41.3h-3.5l2.3-4l4.1,1.3L235.4,41.3z"/>
	<path fill="#FF8773" d="M254.3,53.7l-1.7-6l-1.8,6H246l-4.3-11.5h5l1.9,6.8l1.8-6.8h4.5l1.9,6.8l1.9-6.8h4.7l-4.4,11.5H254.3z"/>
	<path fill="#FF8773" d="M271.5,38.9c0,1.4-1,2.4-2.5,2.4s-2.5-1-2.5-2.4s1-2.4,2.5-2.4S271.5,37.5,271.5,38.9z M266.6,53.7V42.2
		h4.9v11.5H266.6z"/>
	<path fill="#FF8773" d="M287.9,49h-7.8c0.3,0.9,1,1.4,2,1.4c0.8,0,1.7-0.4,2.4-1l2.6,2.4c-1.3,1.3-3.1,2.1-5.4,2.1
		c-4.1,0-6.5-2.3-6.5-5.9c0-3.6,2.5-6,6.4-6C285.7,42,288.2,44.8,287.9,49z M283,46.8c0.1-0.9-0.5-1.6-1.4-1.6s-1.4,0.7-1.6,1.6H283
		z"/>
	<path fill="#FF8773" d="M302.7,45.4l-3.9,1.6c-0.3-0.7-0.8-1.1-1.5-1.1c-1,0-1.6,0.8-1.6,2.1c0,1.3,0.6,2.1,1.6,2.1
		c0.7,0,1.2-0.4,1.5-1.2l4,1.8c-0.9,2-3,3.2-5.7,3.2c-3.8,0-6.3-2.3-6.3-5.9c0-3.6,2.5-6,6.3-6C299.6,42,301.7,43.3,302.7,45.4z"/>
	<path fill="#FF8773" d="M310.9,38.9c0,1.4-1,2.4-2.5,2.4s-2.5-1-2.5-2.4s1-2.4,2.5-2.4S310.9,37.5,310.9,38.9z M306,53.7V42.2h4.9
		v11.5H306z"/>
	<path fill="#FF8773" d="M327.3,49h-7.8c0.3,0.9,1,1.4,2,1.4c0.8,0,1.7-0.4,2.4-1l2.6,2.4c-1.3,1.3-3.1,2.1-5.4,2.1
		c-4.1,0-6.5-2.3-6.5-5.9c0-3.6,2.5-6,6.4-6C325.1,42,327.5,44.8,327.3,49z M322.4,46.8c0.1-0.9-0.5-1.6-1.4-1.6s-1.4,0.7-1.6,1.6
		H322.4z"/>
</g>
<g>
	<path fill="#FF8773" d="M16.9,318.3c0,3.5-2.1,5.8-5.3,5.8c-1.3,0-2.4-0.5-3.1-1.3v5.2H3.6v-15.6h4.9v1.2c0.8-0.9,1.8-1.3,3-1.3
		C14.7,312.3,16.9,314.7,16.9,318.3z M12,318.2c0-1.3-0.7-2.2-1.8-2.2c-1.1,0-1.7,0.9-1.7,2.2s0.7,2.2,1.7,2.2
		C11.3,320.4,12,319.5,12,318.2z"/>
	<path fill="#FF8773" d="M31.4,318.2c0,3.6-2.6,5.9-6.7,5.9c-4.1,0-6.7-2.3-6.7-5.9s2.6-5.9,6.7-5.9
		C28.8,312.3,31.4,314.7,31.4,318.2z M23,318.3c0,1.3,0.7,2.2,1.8,2.2c1.1,0,1.8-0.9,1.8-2.2s-0.7-2.2-1.8-2.2
		C23.7,316.1,23,317,23,318.3z"/>
	<path fill="#FF8773" d="M45.9,324h-4.9v-1.2c-0.8,0.9-1.8,1.3-3,1.3c-3.3,0-5.4-2.4-5.4-6c0-3.5,2.1-5.8,5.3-5.8
		c1.3,0,2.4,0.5,3.1,1.3v-5.3h4.9V324z M41.1,318.3c0-1.3-0.7-2.2-1.7-2.2c-1.1,0-1.8,0.9-1.8,2.2s0.7,2.2,1.8,2.2
		C40.4,320.5,41.1,319.7,41.1,318.3z"/>
	<path fill="#FF8773" d="M59.9,315.7l-3.9,1.6c-0.3-0.7-0.8-1.1-1.5-1.1c-0.9,0-1.6,0.8-1.6,2.1c0,1.3,0.6,2.1,1.6,2.1
		c0.7,0,1.2-0.4,1.4-1.2l3.9,1.8c-0.9,2-2.9,3.2-5.6,3.2c-3.8,0-6.2-2.3-6.2-5.9c0-3.6,2.5-6,6.2-6
		C56.9,312.3,58.9,313.6,59.9,315.7z"/>
	<path fill="#FF8773" d="M67.1,320.5h5.1v3.5H61v-2.8l4.9-5.2h-4.7v-3.5H72v2.8L67.1,320.5z"/>
	<path fill="#FF8773" d="M85.6,316.6v7.4h-4.8v-1.2c-0.7,0.9-1.8,1.4-3.3,1.4c-2.5,0-3.9-1.4-3.9-3.6c0-2.3,1.6-3.5,4.6-3.5h2.7
		c0-0.8-0.6-1.3-1.8-1.3c-0.9,0-2.2,0.3-3.6,0.7l-1.1-3.1c2-0.7,4.1-1.1,5.8-1.1C83.6,312.3,85.6,313.9,85.6,316.6z M80.9,320.3
		v-1.1h-1.7c-0.7,0-1,0.3-1,0.9c0,0.6,0.4,1,1.1,1C79.9,321.2,80.5,320.9,80.9,320.3z"/>
	<path fill="#FF8773" d="M98.6,313.8l-1.6,2.9c-1.7-0.8-3.1-1.3-4-1.3c-0.4,0-0.7,0.1-0.7,0.4c0,1.1,6.1,0.7,6.1,4.5
		c0,2.4-2.1,3.9-5.3,3.9c-2.2,0-4.1-0.5-5.8-1.6l1.5-2.9c1.6,0.9,3,1.4,4.4,1.4c0.5,0,0.7-0.1,0.7-0.3c0-1-6-0.6-6-4.5
		c0-2.4,2-4,5.2-4C95,312.3,96.8,312.8,98.6,313.8z"/>
	<path fill="#FF8773" d="M106.1,324v-14.7h5V324H106.1z"/>
	<path fill="#FF8773" d="M113.9,324v-14.7h5V324H113.9z"/>
	<path fill="#FF8773" d="M138.3,324l-1.7-6l-1.7,6h-4.7l-4.3-11.5h4.9l1.9,6.8l1.8-6.8h4.5l1.9,6.8l1.9-6.8h4.7L143,324H138.3z"/>
	<path fill="#FF8773" d="M161,318.2c0,3.6-2.6,5.9-6.7,5.9c-4.1,0-6.7-2.3-6.7-5.9s2.6-5.9,6.7-5.9C158.4,312.3,161,314.7,161,318.2
		z M152.6,318.3c0,1.3,0.7,2.2,1.8,2.2c1.1,0,1.8-0.9,1.8-2.2s-0.7-2.2-1.8-2.2C153.3,316.1,152.6,317,152.6,318.3z"/>
	<path fill="#FF8773" d="M168,324.4c0,2.4-1.8,3.9-4.7,3.9c-1.3,0-2.5-0.3-3.4-0.7l1.1-3.2c0.4,0.2,0.8,0.3,1.2,0.3
		c0.6,0,0.9-0.3,0.9-1v-11.1h4.9V324.4z M168.2,309.2c0,1.4-1.1,2.4-2.7,2.4c-1.6,0-2.7-1-2.7-2.4c0-1.4,1.1-2.4,2.7-2.4
		C167.2,306.8,168.2,307.8,168.2,309.2z"/>
	<path fill="#FF8773" d="M183.8,316.7v7.3H179v-6c0-1-0.6-1.6-1.4-1.6c-0.9,0-1.6,0.7-1.6,1.8v5.7h-4.9v-11.5h4.9v1.6
		c0.8-1.2,2-1.8,3.6-1.8C182.1,312.3,183.8,314,183.8,316.7z"/>
	<path fill="#FF8773" d="M194.1,324.8c-1,2.4-2.7,3.5-5.2,3.5c-1.6,0-2.8-0.4-4.1-1.3l2-3.1c0.5,0.5,1,0.7,1.6,0.7
		c0.6,0,0.9-0.2,1.2-0.6l0.2-0.3l-4.9-11.1h5l2.3,6.6l1.9-6.6h4.8L194.1,324.8z"/>
	<path fill="#FF8773" d="M216.3,313.8l-1.6,2.9c-1.7-0.8-3.1-1.3-4-1.3c-0.4,0-0.7,0.1-0.7,0.4c0,1.1,6.1,0.7,6.1,4.5
		c0,2.4-2.1,3.9-5.3,3.9c-2.2,0-4.1-0.5-5.8-1.6l1.5-2.9c1.6,0.9,3,1.4,4.4,1.4c0.5,0,0.7-0.1,0.7-0.3c0-1-6-0.6-6-4.5
		c0-2.4,2-4,5.2-4C212.7,312.3,214.5,312.8,216.3,313.8z M212.2,311.6h-3.4l2.3-4l4.1,1.3L212.2,311.6z"/>
	<path fill="#FF8773" d="M229.3,324l-1.7-6l-1.7,6h-4.7l-4.3-11.5h4.9l1.9,6.8l1.8-6.8h4.5l1.9,6.8l1.9-6.8h4.7L234,324H229.3z"/>
	<path fill="#FF8773" d="M244.8,309.2c0,1.4-1,2.4-2.5,2.4c-1.4,0-2.5-1-2.5-2.4c0-1.4,1-2.4,2.5-2.4
		C243.8,306.8,244.8,307.8,244.8,309.2z M239.9,324v-11.5h4.9V324H239.9z"/>
	<path fill="#FF8773" d="M258.9,316.6v7.4h-4.8v-1.2c-0.7,0.9-1.8,1.4-3.3,1.4c-2.5,0-3.9-1.4-3.9-3.6c0-2.3,1.6-3.5,4.6-3.5h2.7
		c0-0.8-0.6-1.3-1.8-1.3c-0.9,0-2.2,0.3-3.6,0.7l-1.1-3.1c2-0.7,4.1-1.1,5.8-1.1C256.9,312.3,258.9,313.9,258.9,316.6z M254.1,320.3
		v-1.1h-1.7c-0.7,0-1,0.3-1,0.9c0,0.6,0.4,1,1.1,1C253.1,321.2,253.7,320.9,254.1,320.3z"/>
	<path fill="#FF8773" d="M269.9,323.5c-0.8,0.4-2.1,0.7-3.4,0.7c-2.7,0-4.4-1.5-4.4-3.9v-4.2h-1.6v-3h1.6v-3.2h4.8v3.2h2.8v3h-2.8
		v3.5c0,0.6,0.4,1,0.9,1c0.3,0,0.8-0.1,1.2-0.3L269.9,323.5z"/>
	<path fill="#FF8773" d="M284.5,318.2c0,3.6-2.6,5.9-6.7,5.9c-4.1,0-6.7-2.3-6.7-5.9s2.6-5.9,6.7-5.9
		C281.9,312.3,284.5,314.7,284.5,318.2z M276,318.3c0,1.3,0.7,2.2,1.8,2.2c1.1,0,1.8-0.9,1.8-2.2s-0.7-2.2-1.8-2.2
		C276.7,316.1,276,317,276,318.3z"/>
	<path fill="#FF8773" d="M297.3,324l-1.7-6l-1.7,6h-4.7l-4.3-11.5h4.9l1.9,6.8l1.8-6.8h4.5l1.9,6.8l1.9-6.8h4.7L302,324H297.3z"/>
	<path fill="#FF8773" d="M319.3,319.3h-7.7c0.3,0.9,1,1.4,2,1.4c0.8,0,1.7-0.4,2.4-1l2.5,2.4c-1.3,1.3-3.1,2.1-5.3,2.1
		c-4,0-6.4-2.3-6.4-5.9c0-3.6,2.5-6,6.3-6C317.1,312.3,319.5,315.1,319.3,319.3z M314.4,317.1c0.1-0.9-0.5-1.6-1.4-1.6
		s-1.4,0.7-1.6,1.6H314.4z"/>
	<path fill="#FF8773" d="M326.3,324.4c0,2.4-1.8,3.9-4.7,3.9c-1.3,0-2.5-0.3-3.4-0.7l1.1-3.2c0.4,0.2,0.8,0.3,1.2,0.3
		c0.6,0,0.9-0.3,0.9-1v-11.1h4.9V324.4z M326.5,309.2c0,1.4-1.1,2.4-2.7,2.4c-1.6,0-2.7-1-2.7-2.4c0-1.4,1.1-2.4,2.7-2.4
		C325.5,306.8,326.5,307.8,326.5,309.2z"/>
</g>
</svg>
