<svg id="Layer_1" data-name="Layer 1" xmlns="http://www.w3.org/2000/svg" viewBox="0 0 83 25"><defs><style>.cls-1{fill:#fff;}</style></defs><title>logo-Karta</title><path class="cls-1" d="M6.71,24.29C8,23.11,8.08,21.82,8.08,20V4.26C8.08,2.44,8,1.15,6.71,0h6.36C11.81,1.15,11.7,2.44,11.7,4.26V20c0,1.83.11,3.12,1.37,4.3Z"/><path class="cls-1" d="M24.12,24.29c-2.91,0-4.07-1.18-5.88-3.9l-6-8.85,5.38-7.6a4.64,4.64,0,0,0,1.09-2.26A2.56,2.56,0,0,0,17.9,0h5.81L16.22,10.86,23,20.93a24.25,24.25,0,0,0,3,3.36Z"/><path class="cls-1" d="M40.51,24.22c-3.29,0-4.59-1.15-4.59-4V15.12c-4.75,1.36-7,1.86-7,4.08,0,1.72,1.44,3,3.76,3a9.73,9.73,0,0,0,2.43-.4L33.25,24.4a9,9,0,0,1-2.12.29,5.36,5.36,0,0,1-5.71-5.34,4.51,4.51,0,0,1,1.16-3.08c1.23-1.29,3.08-1.54,5.54-2.15,2.67-.65,3.77-1.11,3.77-2.4,0-1.44-1.37-2.44-3.7-2.44a9.9,9.9,0,0,0-4.34,1.33L30,7a21,21,0,0,1,3-.25,6.42,6.42,0,0,1,4.07,1.22c1.68,1.29,1.88,3,1.88,5.59v4.12c0,3.08.07,4.08,2.91,4.3Z"/><path class="cls-1" d="M51.14,9.89c-2.32,0-3.62,1.68-3.62,4.87V21.1a3.94,3.94,0,0,0,1.16,3.19H43.21a3.94,3.94,0,0,0,1.16-3.19V10.5a4,4,0,0,0-1.16-3.23h.37a20.94,20.94,0,0,0,3.73-.39l.24,2.72c1-1.83,2.22-2.69,3.87-2.69a7.36,7.36,0,0,1,1.4.18v3.37a2.61,2.61,0,0,0-1.68-.57"/><path class="cls-1" d="M61.89,9.75H59.56V18c0,3,.89,4.41,3,4.41a5.13,5.13,0,0,0,1.5-.25L62.4,24.69c-.38,0-.72.07-1.06.07-3.29,0-4.93-1.76-4.93-5.13V9.75H54.19V8.49c2.63-.25,4.27-2.61,4.38-6.66h1V7.27h4.82v3.19a3.39,3.39,0,0,0-2.49-.71"/><path class="cls-1" d="M80.94,24.22c-3.29,0-4.59-1.15-4.59-4V15.12c-4.75,1.36-7,1.86-7,4.08,0,1.72,1.44,3,3.76,3a9.73,9.73,0,0,0,2.43-.4L73.68,24.4a9,9,0,0,1-2.12.29,5.36,5.36,0,0,1-5.71-5.34A4.51,4.51,0,0,1,67,16.27c1.24-1.29,3.08-1.54,5.54-2.15,2.67-.65,3.77-1.11,3.77-2.4,0-1.44-1.37-2.44-3.7-2.44a9.9,9.9,0,0,0-4.34,1.33L70.47,7a21,21,0,0,1,3-.25,6.42,6.42,0,0,1,4.07,1.22c1.68,1.29,1.88,3,1.88,5.59v4.12c0,3.08.07,4.08,2.91,4.3Z"/><path class="cls-1" d="M.78,22.48c0,1,1,1.2,2.44,1.2s2.45-.2,2.45-1.2-1-1.2-2.45-1.2-2.44.21-2.44,1.2m5.46,0c0,1.43-1.22,2-3,2s-3-.58-3-2,1.21-2,3-2,3,.58,3,2"/><path class="cls-1" d="M6.24,18.8c0,.43-.24,1.35-.4,1.35a.35.35,0,0,1-.11,0L5.47,20c-.06,0-.07,0-.07-.08a3.26,3.26,0,0,0,.29-1.14.63.63,0,0,0-.61-.71c-.88,0-.68,2-2,2A1.22,1.22,0,0,1,2,18.69a2.94,2.94,0,0,1,.25-1.05c0-.07.07-.09.11-.09l.08,0,.23.12c.07,0,.1.05.1.1a2.72,2.72,0,0,0-.23.9c0,.35.17.65.56.65.93,0,.67-2,2-2,.8,0,1.2.65,1.2,1.41M.65,17.5,1.37,19a.16.16,0,0,1,0,.09s0,.06-.07.08l-.12.08s-.06.05-.08.05,0,0-.08-.07L.1,17.89a.19.19,0,0,1,0-.09s0-.06.07-.08l.36-.26a.15.15,0,0,1,.09,0s.05,0,.07.08"/><path class="cls-1" d="M2.16,14.66l.43.2s.06,0,.06.05a.8.8,0,0,0-.08.29c0,.31.44.62.66.83H6c.07,0,.1,0,.1.11v.46c0,.07,0,.11-.1.11H3.12a1.28,1.28,0,0,0-.64.15.6.6,0,0,1-.21.09.13.13,0,0,1-.09-.06L2,16.56a.14.14,0,0,1,0-.08c0-.16.52-.31.71-.35C2.42,15.9,2,15.58,2,15.07c0-.21.06-.44.14-.44l.07,0"/><path class="cls-1" d="M2.47,13.06c0,.79.73,1,1.56,1s1.69-.23,1.69-1S5,12,4.06,12s-1.59.24-1.59,1m3.77,0c0,1.2-.92,1.71-2.13,1.71S1.94,14.31,1.94,13s.93-1.73,2.13-1.73,2.17.53,2.17,1.82"/><path class="cls-1" d="M2.79,8.27a2,2,0,0,0-.28,1c0,.76.83.83,1.65.83s1.51-.06,1.51-.78a2.14,2.14,0,0,0-.49-1.06ZM6,7.42l.21.34a.41.41,0,0,1,0,.07c0,.13-.36.29-.5.32a2.15,2.15,0,0,1,.5,1.3c0,1-1,1.38-2.06,1.38C3,10.83,2,10.38,2,9.36a1.94,1.94,0,0,1,.28-1.09h-2a.09.09,0,0,1-.1-.07L0,7.77a.43.43,0,0,1,0-.11c0-.07.07-.07.11-.07H4.79a2.19,2.19,0,0,0,.84-.09,1.85,1.85,0,0,1,.31-.16s.06,0,.07.08"/><path class="cls-1" d="M2.47,5.37c0,.81.81,1,1.23,1V4.45c-.44,0-1.23.15-1.23.92M4.23,3.82V6.36A1.28,1.28,0,0,0,5.67,5.14a2.49,2.49,0,0,0-.34-1.09s0,0,0,0l.35-.15.07,0a2.35,2.35,0,0,1,.44,1.4A1.89,1.89,0,0,1,4.09,7.09C2.85,7.09,2,6.43,2,5.33,2,3.85,3.32,3.72,4,3.72c.12,0,.19,0,.19.1"/><path class="cls-1" d="M6,.09l.2.31s0,.07,0,.11a.14.14,0,0,1-.07.1L4,2.41v0H6c.07,0,.1,0,.1.11V3c0,.07,0,.1-.1.1H.22c-.06,0-.09,0-.1-.06L0,2.6a.52.52,0,0,1,0-.11c0-.06.07-.06.11-.06H3.92L2,.67S1.94.61,1.94.57,2,.5,2,.46L2.2.15s0,0,.06,0,.07,0,.1.06l1.58,1.5L5.83.1A.17.17,0,0,1,5.93,0s0,0,.06,0"/></svg>