<svg id="Layer_1" data-name="Layer 1" xmlns="http://www.w3.org/2000/svg" viewBox="0 0 83 62"><defs><style>.cls-1{fill:#fff;}</style></defs><title>logo-CC</title><path class="cls-1" d="M18.78,3.85c0,.38.19.62.51.62s.37-.12.37-.31-.13-.29-.83-.57c-1-.41-2-.76-2-1.93S18.07,0,19.28,0c2,0,2.39,1.07,2.39,1.86h-2c0-.4-.1-.58-.41-.58s-.35.09-.35.3.18.36.75.56c1,.35,2.08.71,2.08,1.92s-.86,1.86-2.47,1.86-2.49-.73-2.49-2.07Zm5.06,1.91h2V1.88h1V.16H22.8V1.88h1Zm9.24,0h1.84L37,.16H34.82l-.85,3-.82-3H31.5l-.82,3-.85-3H27.67l2,5.6h1.85l.75-2.58ZM41.86,3a1.06,1.06,0,1,1-2.12,0,1.06,1.06,0,1,1,2.12,0M37.7,3a3.1,3.1,0,0,0,6.2,0,3.1,3.1,0,0,0-6.2,0m10.57-.65a.59.59,0,0,1-.58.63H47.2V1.69h.49a.58.58,0,0,1,.58.62M45.16,5.76h2V4.46l.92,1.3h2.41L49.41,4.11a2.09,2.09,0,0,0,1-1.8A2.1,2.1,0,0,0,48.19.16h-3Zm6.69-4h2.07l-2.41,4h5.32V4.14H54.64l2.41-4h-5.2ZM62.23,3a1.06,1.06,0,1,1-2.12,0,1.06,1.06,0,1,1,2.12,0M58.07,3a3.11,3.11,0,0,0,6.21,0,3.11,3.11,0,0,0-6.21,0m9.5-2.8h-2v5.6h2V2.94L69.2,5.76h2V.16h-2v3ZM76.66,3a1.07,1.07,0,1,1-2.13,0,1.07,1.07,0,1,1,2.13,0M72.49,3A3.11,3.11,0,0,0,78.7,3a3.11,3.11,0,0,0-6.21,0M21.81,15.36h1.85l2.06-5.6H23.56l-.85,3-.82-3H20.24l-.83,3-.84-3H16.41l2.05,5.6h1.85l.75-2.58Zm10.5-3.45a.59.59,0,0,1-.59.62h-.49V11.29h.5a.58.58,0,0,1,.58.62m-3.12,3.45h2V14.05h1a2.15,2.15,0,1,0,0-4.29h-3Zm9.47-3.45a.59.59,0,0,1-.59.62h-.48V11.29h.49a.58.58,0,0,1,.58.62m-3.11,3.45h2V14.05l.92,1.31h2.41l-1.13-1.65a2.16,2.16,0,0,0-1.21-4h-3Zm10-2h-1L45,11.51Zm2.85,2-2.2-5.6H43.87l-2.13,5.6H44l.17-.62H45.9l.16.62Zm4.93-2.42a.87.87,0,0,1-1,.72,1,1,0,0,1-1-1.1,1,1,0,0,1,1-1.11.88.88,0,0,1,.94.75H55.4a2.85,2.85,0,0,0-3.08-2.6,3,3,0,1,0,0,5.92,2.86,2.86,0,0,0,3.08-2.58Zm7.26-.38a1.07,1.07,0,1,1-1.07-1.1,1,1,0,0,1,1.07,1.1m-4.17,0a3.11,3.11,0,1,0,3.1-3,2.92,2.92,0,0,0-3.1,3m12.33,2.8h1.85l2.06-5.6H70.46l-.85,3-.82-3H67.14l-.83,3-.84-3H63.3l2.06,5.6h1.85L68,12.78Zm7-5.6h-2v5.6h2V12.53l1.63,2.83h2V9.76h-2v3Zm5.2,5.6h2V9.76h-2Zm-60,6.86a1.08,1.08,0,1,1-1.08-1.1,1.06,1.06,0,0,1,1.08,1.1m-4.21,0a2.94,2.94,0,0,0,3.13,3,3,3,0,1,0,0-6,2.94,2.94,0,0,0-3.13,3M25,25.05h2.06V21.13h1V19.4H24v1.73h1Zm9.33,0h1.86l2.07-5.65H36.08l-.86,3.05-.83-3.05H32.73l-.83,3.05L31,19.4H28.86l2.07,5.65H32.8l.76-2.6Zm5,0h2V19.4h-2Zm7.43-4.18V19.4H42.88v5.65H46.7V23.57H44.93v-.63H46.7v-1.4H44.93v-.67Zm4.63.7a.6.6,0,0,1-.59.63h-.5V20.94h.5a.59.59,0,0,1,.59.63m-3.14,3.48h2.05V23.73l.93,1.32h2.44l-1.14-1.67a2.18,2.18,0,0,0-1.22-4H48.19Zm10.05-2h-1l.5-1.85Zm2.88,2L58.9,19.4H56.59l-2.15,5.65h2.24l.17-.63h1.78l.17.63Zm3.2-5.65h-2v5.65h2V22.2L66,25.05H68V19.4H66v3Zm5.26,5.65h2.06V19.4H69.58Zm7-2h-1l.51-1.85Zm2.87,2L77.24,19.4H74.93l-2.14,5.65H75l.17-.63H77l.17.63Zm-59.2,9.59h2.36l-1.9-2.8,1.9-2.8H20.26L19,31.24V29h-2v5.6h2V32.45Zm3.29-2c0,1.28.93,2.14,2.5,2.14s2.51-.86,2.51-2.14V29h-2v3.59a.47.47,0,1,1-.93,0V29h-2Zm8.44.26V29H30v5.6h3.36V32.92Zm3.45,1.72h2V30.76h1V29h-4.1v1.72h1Zm4.22-2c0,1.28.93,2.14,2.51,2.14s2.5-.86,2.5-2.14V29h-2v3.59a.47.47,0,1,1-.93,0V29h-2Zm9.51-1.47a.59.59,0,0,1-.58.63H48.1V30.57h.5a.58.58,0,0,1,.57.62m-3.11,3.45h2v-1.3l.92,1.3h2.42L50.31,33a2.12,2.12,0,0,0,.95-1.81A2.1,2.1,0,0,0,49.09,29h-3ZM58.13,29H55.85l-.67,1.79L54.58,29h-2.4L54,32.8l-.89,1.84h2.3ZM0,.09V62.44H83V56.77H5.67v-51h5.67V.09Z"/></svg>